:SAMPLES-PER-SECOND 30
:FULLY-SPECIFIED
:DEGREES
501
root  -27.7676 39.2416 -0.704298 -179.274 0.945136 -179.711
RightUpLeg  -15.3304 25.195 -2.02117
RightLeg  22.9685 15.6064 6.9609
RightFoot  -9.49323 -0.0486189 -1.02807
RightToes  4.6566e-010 0 -3.6325e-017
Spine  7.36292 -1.98348 4.3232
Spine1  5.60466 -2.6558 3.63374
HEad  -23.7274 -30.8623 11.5637
LeftShoulder1  -0.0171737 3.54986 -31.1741
LeftArm  -1.37219 14.0831 -36.3272
LeftForeArm  19.0411 -14.4514 -6.50123
LeftHand  -0.0274342 5.26303 0.0542322
RightShoulder  -0.753818 -5.67125 28.138
RightArm  26.7643 10.823 46.7682
RightForeArm  0.206677 24.3127 5.19983
RightHand  -0.472542 5.42369 -5.38283
LeftUpLeg  -8.67673 -7.63925 14.3566
LeftLeg  15.3064 -18.4702 -4.73937
LeftFoot  -12.0864 0.0131265 -8.59453
LeftToes  -4.59298e-010 2.08438e-011 -1.27151e-011
502
root  -28.4593 39.3256 -0.503341 -178.429 6.82172 179.539
RightUpLeg  -17.3266 28.0149 -4.91497
RightLeg  22.0363 18.2526 7.7554
RightFoot  -9.43531 -0.0802065 1.01138
RightToes  4.6566e-010 0 -3.6325e-017
Spine  8.62821 -2.08331 0.695974
Spine1  4.83805 -3.11202 4.35594
HEad  -23.8739 -31.476 12.6981
LeftShoulder1  0.0169213 3.45827 -30.7755
LeftArm  -3.3322 14.0994 -35.438
LeftForeArm  19.5896 -14.7224 -5.9386
LeftHand  -0.0238606 4.62328 0.403011
RightShoulder  -0.762455 -5.70016 28.0772
RightArm  22.5609 11.2822 46.0751
RightForeArm  -0.74893 22.4167 4.95389
RightHand  -0.46866 4.589 -5.72517
LeftUpLeg  -8.15383 -2.26381 12.1709
LeftLeg  15.397 -17.5022 -3.91303
LeftFoot  -11.4715 0.0609633 -7.37648
LeftToes  -4.59298e-010 2.08438e-011 -1.27151e-011
503
root  -29.1682 39.3449 -0.346606 -177.381 12.3135 179.21
RightUpLeg  -19.8096 29.3961 -7.49007
RightLeg  21.2868 19.5112 8.00402
RightFoot  -9.72405 -0.102495 2.56863
RightToes  4.6566e-010 0 -3.6325e-017
Spine  9.2071 -2.19423 -2.1425
Spine1  4.19285 -3.64641 5.63093
HEad  -23.2959 -31.9779 12.9537
LeftShoulder1  0.0548025 3.3541 -30.6026
LeftArm  -4.67897 13.8407 -34.1001
LeftForeArm  19.467 -14.6596 -5.64837
LeftHand  -0.0293497 4.67743 0.726089
RightShoulder  -0.756713 -5.68741 27.9945
RightArm  16.6189 10.7747 45.524
RightForeArm  -1.72396 20.8263 4.93499
RightHand  -0.594033 5.03521 -6.90519
LeftUpLeg  -8.63282 1.38939 11.104
LeftLeg  16.3493 -15.6599 -4.22458
LeftFoot  -11.9473 0.0327346 -7.30965
LeftToes  -4.59298e-010 2.08438e-011 -1.27151e-011
504
root  -29.8832 39.461 -0.258968 -176.953 17.5387 178.961
RightUpLeg  -20.5764 27.4918 -9.00833
RightLeg  19.1304 17.2022 6.26844
RightFoot  -9.4171 -0.12695 3.88356
RightToes  4.6566e-010 0 -3.6325e-017
Spine  9.48611 -2.53024 -2.60146
Spine1  4.37124 -3.7256 4.21859
HEad  -23.1519 -32.1719 12.7237
LeftShoulder1  0.192311 2.96242 -29.5079
LeftArm  -4.98329 13.3336 -33.0446
LeftForeArm  18.196 -14.6929 -5.57172
LeftHand  -0.0312113 4.72599 1.1395
RightShoulder  -0.897193 -6.04762 28.7017
RightArm  11.3683 9.94512 44.6581
RightForeArm  -2.51492 19.6116 4.80655
RightHand  -0.677848 5.54149 -7.50225
LeftUpLeg  -7.94405 6.22915 9.89674
LeftLeg  15.9989 -15.3062 -4.16373
LeftFoot  -11.9351 0.0331439 -7.38149
LeftToes  -4.59298e-010 2.08438e-011 -1.27151e-011
505
root  -30.5732 39.6128 -0.238002 -176.429 22.8379 178.866
RightUpLeg  -20.938 20.503 -9.17856
RightLeg  17.5234 13.4632 4.04837
RightFoot  -8.38724 -0.123692 2.5191
RightToes  4.6566e-010 0 -3.6325e-017
Spine  9.53068 -2.60131 -2.19351
Spine1  4.21037 -3.50536 3.06115
HEad  -22.6527 -31.4177 11.7101
LeftShoulder1  0.345622 2.5164 -28.852
LeftArm  -6.36292 12.6089 -32.2981
LeftForeArm  17.8515 -14.1293 -5.45728
LeftHand  -0.0378567 4.79111 2.72082
RightShoulder  -0.858187 -5.9456 28.5197
RightArm  7.90242 7.98885 43.6826
RightForeArm  -3.08991 18.9611 4.60973
RightHand  -0.676297 5.23358 -7.68311
LeftUpLeg  -7.18602 8.50943 8.71822
LeftLeg  14.9926 -12.4641 -3.28209
LeftFoot  -11.7211 0.0460799 -7.24759
LeftToes  -4.59298e-010 2.08438e-011 -1.27151e-011
506
root  -31.1435 39.7413 -0.316627 -176.056 28.7008 179.127
RightUpLeg  -20.7237 12.226 -8.13461
RightLeg  16.0409 9.3007 1.90232
RightFoot  -9.07831 -0.0975925 1.91577
RightToes  4.6566e-010 0 -3.6325e-017
Spine  9.33644 -2.29996 -1.77253
Spine1  4.32385 -3.08486 2.69309
HEad  -21.9621 -30.3861 9.86644
LeftShoulder1  0.277809 2.71803 -29.2238
LeftArm  -6.85798 11.774 -31.7348
LeftForeArm  15.7466 -13.9591 -5.43397
LeftHand  -0.0457327 4.70779 4.17433
RightShoulder  -0.685234 -5.51078 27.4825
RightArm  8.0917 6.31812 42.5665
RightForeArm  -3.8594 17.9044 4.64875
RightHand  -0.555586 4.22608 -6.96197
LeftUpLeg  -6.03554 9.95602 7.91312
LeftLeg  14.1486 -8.09397 -2.12568
LeftFoot  -11.5954 0.0543231 -6.80029
LeftToes  -4.59298e-010 2.08438e-011 -1.27151e-011
507
root  -31.5453 39.8481 -0.41815 -176.002 34.5926 179.462
RightUpLeg  -20.1689 2.27069 -6.27666
RightLeg  14.6111 6.53664 0.911371
RightFoot  -9.95137 -0.103477 2.88958
RightToes  4.6566e-010 0 -3.6325e-017
Spine  9.2957 -1.88568 -1.3287
Spine1  4.36078 -2.47295 2.01067
HEad  -21.6813 -28.5516 8.73551
LeftShoulder1  0.261187 2.75993 -28.9795
LeftArm  -7.72331 11.8186 -32.276
LeftForeArm  13.5104 -14.4239 -5.13215
LeftHand  -0.0377303 5.0596 5.45562
RightShoulder  -0.636474 -5.37002 27.3966
RightArm  9.64892 5.51464 41.0902
RightForeArm  -2.55749 15.8616 4.9541
RightHand  -0.49716 3.90569 -6.4405
LeftUpLeg  -4.36182 11.0147 7.46792
LeftLeg  13.1682 -3.39234 -1.17261
LeftFoot  -11.3625 0.0667558 -6.38766
LeftToes  -4.59298e-010 2.08438e-011 -1.27151e-011
508
root  -31.8031 39.9545 -0.515884 -175.835 39.9823 179.809
RightUpLeg  -20.1633 -6.24498 -4.74863
RightLeg  13.9186 4.42569 0.959489
RightFoot  -9.53369 -0.108903 2.83318
RightToes  4.6566e-010 0 -3.6325e-017
Spine  9.03346 -1.74752 -1.32844
Spine1  4.54551 -2.32397 1.96794
HEad  -21.4481 -25.8065 8.26895
LeftShoulder1  0.219243 2.8777 -28.8795
LeftArm  -8.76865 11.6019 -32.6404
LeftForeArm  12.1843 -14.4331 -4.88372
LeftHand  -0.0340204 5.12773 5.12064
RightShoulder  -0.670722 -5.4558 27.6735
RightArm  11.5932 5.60573 39.9888
RightForeArm  -0.4214 12.8646 5.84807
RightHand  -0.625506 3.92799 -7.98304
LeftUpLeg  -2.51597 12.2436 7.45414
LeftLeg  11.7001 0.541815 -0.990558
LeftFoot  -10.8921 0.0899904 -6.29038
LeftToes  -4.59298e-010 2.08438e-011 -1.27151e-011
509
root  -31.9486 40.0489 -0.603013 -175.491 44.6428 -179.709
RightUpLeg  -20.0711 -12.9284 -3.47445
RightLeg  13.4692 0.547649 0.854893
RightFoot  -8.62163 -0.106093 2.01328
RightToes  4.6566e-010 0 -3.6325e-017
Spine  9.05504 -1.94445 -1.04072
Spine1  4.14986 -2.49308 1.87763
HEad  -21.1612 -23.4095 7.88889
LeftShoulder1  0.21518 2.88994 -28.9864
LeftArm  -8.27202 11.3708 -32.4513
LeftForeArm  11.2843 -14.6457 -4.98108
LeftHand  -0.0595587 4.48777 5.12814
RightShoulder  -0.680341 -5.48289 27.6905
RightArm  12.2814 5.37538 39.5465
RightForeArm  5.27818 9.20487 6.66541
RightHand  -0.366403 2.59847 -5.57237
LeftUpLeg  -0.856116 12.8524 7.66144
LeftLeg  10.3 4.32137 -1.10874
LeftFoot  -10.4975 0.111516 -6.58703
LeftToes  -4.59298e-010 2.08438e-011 -1.27151e-011
510
root  -31.9919 40.1167 -0.697143 -175.586 48.96 -179.706
RightUpLeg  -19.9024 -17.4266 -2.87179
RightLeg  13.7217 -4.40862 0.188872
RightFoot  -7.7481 -0.0890406 1.15968
RightToes  4.6566e-010 0 -3.6325e-017
Spine  8.88709 -2.11855 -1.54068
Spine1  4.38446 -2.93499 2.8367
HEad  -21.3703 -20.5574 7.25155
LeftShoulder1  0.136526 3.12194 -29.592
LeftArm  -7.82707 10.2252 -32.6761
LeftForeArm  11.2094 -14.4468 -5.16923
LeftHand  -0.0618896 4.42519 5.07525
RightShoulder  -0.64706 -5.41257 27.1999
RightArm  12.1073 4.23384 39.5624
RightForeArm  7.54809 6.64508 6.78182
RightHand  -0.35884 2.24265 -5.65595
LeftUpLeg  1.00879 12.3841 7.3076
LeftLeg  8.62751 8.88942 -1.03021
LeftFoot  -9.9835 0.141441 -6.89759
LeftToes  -4.59298e-010 2.08438e-011 -1.27151e-011
511
root  -31.8964 40.0945 -0.770945 -175.873 53.1932 179.924
RightUpLeg  -19.9769 -21.6843 -2.22056
RightLeg  14.4366 -6.50419 -0.449846
RightFoot  -7.27268 -0.0617803 0.342001
RightToes  4.6566e-010 0 -3.6325e-017
Spine  8.60552 -2.26496 -1.25983
Spine1  4.19389 -2.90851 2.11627
HEad  -21.3312 -18.4825 6.90073
LeftShoulder1  0.180512 2.99744 -29.5564
LeftArm  -8.62282 9.2378 -33.6665
LeftForeArm  12.7018 -14.3646 -4.99118
LeftHand  -0.0482928 4.66902 4.38218
RightShoulder  -0.666855 -5.44859 27.6023
RightArm  10.8073 1.74919 39.0449
RightForeArm  7.25463 5.2534 6.20994
RightHand  -0.410711 2.36279 -6.35964
LeftUpLeg  2.54817 11.8428 6.81662
LeftLeg  7.60245 13.4776 -1.15599
LeftFoot  -9.88268 0.15224 -7.29809
LeftToes  -4.59298e-010 2.08438e-011 -1.27151e-011
512
root  -31.6507 40.0475 -0.819456 -176.372 57.1726 179.405
RightUpLeg  -19.5837 -24.9344 -1.84835
RightLeg  14.9648 -6.83249 -0.784396
RightFoot  -7.02214 -0.0330798 -0.375504
RightToes  4.6566e-010 0 -3.6325e-017
Spine  8.04441 -2.31363 -1.70689
Spine1  4.5103 -3.10064 2.58666
HEad  -21.4339 -16.5515 5.95642
LeftShoulder1  0.0751676 3.29597 -29.9709
LeftArm  -8.4332 7.87793 -34.7069
LeftForeArm  12.8247 -14.8625 -4.95717
LeftHand  -0.0415279 4.89496 4.58502
RightShoulder  -0.705571 -5.5465 27.8649
RightArm  9.46813 -0.769752 38.2893
RightForeArm  6.37136 4.51403 5.58895
RightHand  -0.40948 3.15689 -5.6392
LeftUpLeg  4.38149 11.3557 6.41119
LeftLeg  6.30218 17.6451 -1.44604
LeftFoot  -9.82203 0.166961 -8.16352
LeftToes  -4.59298e-010 2.08438e-011 -1.27151e-011
